<svg width="21" height="22" viewBox="0 0 21 22" fill="none" xmlns="http://www.w3.org/2000/svg">
<g clip-path="url(#clip0_331_304)">
<path d="M20.4248 13.7598L20.9934 13.4114L21.0001 0.608868L20.4468 0.0656319L20.4383 5.32302L20.4248 13.7598Z" fill="#231F20"/>
<path d="M17.3648 5.09747C17.3583 5.10379 17.352 5.11011 17.3451 5.11681C17.3405 5.12119 17.3355 5.12589 17.3308 5.13042C17.3247 5.13631 17.3188 5.14209 17.3123 5.14819C17.307 5.15316 17.3014 5.1584 17.296 5.16354C17.2894 5.16964 17.2831 5.17569 17.2763 5.18201C17.2703 5.18752 17.264 5.19324 17.2579 5.19891C17.251 5.20523 17.2441 5.2115 17.2369 5.21804C17.2303 5.22403 17.2234 5.23024 17.2165 5.23646C17.2092 5.24294 17.202 5.24942 17.1944 5.25617C17.1871 5.2626 17.1795 5.2693 17.1719 5.27594C17.1642 5.28269 17.1566 5.28934 17.1486 5.29625C17.1406 5.30322 17.1322 5.31035 17.1239 5.31748C17.1159 5.32434 17.1079 5.3312 17.0996 5.33817C17.0909 5.34551 17.0821 5.35291 17.0731 5.36042C17.0645 5.36755 17.0559 5.37474 17.047 5.38203C17.0377 5.38964 17.0282 5.39737 17.0187 5.4052C17.0096 5.41255 17.0004 5.42 16.9911 5.42751C16.9813 5.43534 16.9714 5.44328 16.9613 5.45128C16.9516 5.45895 16.9418 5.46672 16.9318 5.4745C16.9215 5.48266 16.911 5.49076 16.9003 5.49903C16.8901 5.50686 16.8799 5.51474 16.8694 5.52274C16.8584 5.53111 16.8474 5.53948 16.8361 5.54796C16.8254 5.55607 16.8144 5.56422 16.8034 5.57232C16.7918 5.58091 16.7802 5.5895 16.7684 5.59814C16.7572 5.6063 16.7459 5.61456 16.7345 5.62277C16.7221 5.63169 16.7099 5.64049 16.6973 5.64946C16.6857 5.65772 16.6738 5.66604 16.6619 5.67436C16.649 5.68343 16.6362 5.69245 16.623 5.70153C16.6107 5.71001 16.5982 5.71849 16.5856 5.72702C16.5723 5.73615 16.559 5.74523 16.5453 5.75436C16.5325 5.763 16.5192 5.7717 16.5061 5.78039C16.4921 5.78958 16.4784 5.79876 16.4642 5.80799C16.4507 5.81674 16.4368 5.82555 16.4231 5.8343C16.4087 5.84354 16.3944 5.85277 16.3797 5.86206C16.3655 5.87098 16.3508 5.88 16.3364 5.88896C16.3215 5.8982 16.3069 5.90738 16.2917 5.91662C16.2625 5.93445 16.2328 5.95232 16.2024 5.9702C16.1884 5.97852 16.1736 5.98689 16.1593 5.99521C16.1421 6.00521 16.1253 6.01514 16.1078 6.02508C16.0922 6.034 16.0761 6.04285 16.0602 6.05177C16.0435 6.06117 16.0268 6.07062 16.0098 6.07996C15.9932 6.08904 15.9763 6.09811 15.9596 6.10713C15.9425 6.11642 15.9255 6.12566 15.9081 6.13484C15.8912 6.14386 15.8738 6.15283 15.8565 6.1618C15.8387 6.17109 15.821 6.18032 15.8029 6.18961C15.7855 6.19847 15.7678 6.20728 15.7501 6.21614C15.7316 6.22543 15.7131 6.23472 15.6942 6.24395C15.6764 6.2527 15.6582 6.26146 15.64 6.27015C15.6209 6.27939 15.6017 6.28863 15.5822 6.29781C15.5636 6.3065 15.5448 6.3152 15.5259 6.32384C15.5063 6.33292 15.4867 6.34194 15.4667 6.35096C15.4476 6.3596 15.4282 6.36814 15.4089 6.37672C15.3886 6.38569 15.3682 6.3946 15.3475 6.40352C15.3279 6.412 15.308 6.42042 15.288 6.42885C15.2672 6.4376 15.2463 6.4464 15.2251 6.4551C15.2049 6.46342 15.1845 6.47174 15.1639 6.48C15.1423 6.48864 15.1206 6.49723 15.0989 6.50582C15.0781 6.51392 15.0574 6.52197 15.0364 6.53002C15.0264 6.5338 15.0168 6.53769 15.0068 6.54147L15.9378 6.65723C16.052 6.61148 16.9165 6.25967 17.4033 5.91176L17.4007 5.06172C17.3925 5.07003 17.3837 5.07884 17.3743 5.08807C17.3713 5.0911 17.3679 5.09439 17.3648 5.09747Z" fill="#302D2E"/>
<path d="M14.8306 3.77315V6.49116C14.8468 6.48538 14.8631 6.4796 14.8791 6.47377C14.9058 6.46405 14.9323 6.45432 14.9584 6.44449C14.9852 6.43439 15.0117 6.42418 15.038 6.41397C15.0647 6.4036 15.0913 6.39318 15.1176 6.38264C15.1421 6.37281 15.1662 6.36293 15.1903 6.35299C15.2177 6.3417 15.2449 6.33036 15.2717 6.31896C15.2937 6.30961 15.3152 6.30027 15.3368 6.29087C15.3649 6.27861 15.3929 6.26629 15.4204 6.25392C15.4396 6.24523 15.4586 6.23653 15.4775 6.22778C15.5066 6.21439 15.5355 6.20099 15.564 6.18749C15.5801 6.17982 15.596 6.17209 15.612 6.16437C15.6424 6.14968 15.6726 6.13493 15.7022 6.12013C15.7152 6.11365 15.7279 6.10711 15.7407 6.10057C15.7726 6.08442 15.8043 6.06822 15.8352 6.05191C15.8448 6.04694 15.8541 6.04186 15.8635 6.03689C15.8971 6.01907 15.9302 6.00124 15.9627 5.98336C15.9688 5.98001 15.9748 5.97661 15.9809 5.97326C16.016 5.95376 16.0506 5.93426 16.0845 5.91476C16.0874 5.91314 16.0901 5.91147 16.093 5.90985C16.9781 5.39821 17.407 4.89905 17.4129 4.89203L17.5067 4.78065L17.5105 5.96732L17.5104 5.96737L17.5338 13.5714L20.3178 13.7969L20.3314 5.31789L20.3399 -0.000104323L18.0166 0.345271C17.6145 2.38593 15.1411 3.62504 14.8306 3.77315Z" fill="#423F3F"/>
<path d="M9.45264 9.24896L10.7314 13.9648L11.9416 13.9441L10.0592 7.02822L9.45264 9.24896Z" fill="#8D0F14"/>
<path d="M10.6502 14.0741L8.0114 14.1193L9.34176 9.2486L9.34186 9.24811L10.0595 6.62074L12.0816 14.0496L10.6502 14.0741ZM17.0794 20.1288L12.0206 2.95109L7.99197 2.22685L6.02602 8.07263L1.34229 22L6.0091 21.4503L7.13094 17.343L11.5526 17.0803L12.885 17.0012L12.8964 17.0434L13.8219 20.4436L17.0794 20.1288Z" fill="#E81C24"/>
<path d="M6.3053 3.08454L0 21.2591L1.23461 21.9834L5.97918 7.87507L7.86263 2.27452L6.3053 3.08454Z" fill="#C1171D"/>
<path d="M11.6914 17.1807L12.5571 20.3236L13.7101 20.4404L12.8048 17.1146L11.6914 17.1807Z" fill="#8D0F14"/>
</g>
<defs>
<clipPath id="clip0_331_304">
<rect width="21" height="22" fill="white"/>
</clipPath>
</defs>
</svg>
