<svg width="18" height="18" viewBox="0 0 18 18" fill="none" xmlns="http://www.w3.org/2000/svg">
<path d="M1 1H2.626C3.193 1 3.476 1 3.702 1.124C3.79517 1.17529 3.87957 1.24112 3.952 1.319C4.127 1.508 4.196 1.783 4.333 2.333L4.515 3.06C4.616 3.464 4.667 3.666 4.745 3.836C4.87833 4.12609 5.07918 4.38005 5.33074 4.57664C5.58231 4.77323 5.87728 4.90674 6.191 4.966C6.375 5 6.583 5 7 5" stroke="#1E1E1E" stroke-width="2" stroke-linecap="round"/>
<path d="M14.9998 14H4.54984C4.40484 14 4.33184 14 4.27584 13.994C4.13699 13.9785 4.00293 13.9341 3.8823 13.8636C3.76167 13.7932 3.65714 13.6982 3.57545 13.5848C3.49377 13.4715 3.43674 13.3423 3.40804 13.2056C3.37935 13.0688 3.37962 12.9276 3.40884 12.791C3.43183 12.7025 3.45886 12.6151 3.48984 12.529C3.54184 12.375 3.56684 12.298 3.59584 12.229C3.73819 11.888 3.9722 11.5932 4.27193 11.3771C4.57165 11.1611 4.92537 11.0323 5.29384 11.005C5.36784 11 5.44984 11 5.61084 11H10.9998" stroke="#1E1E1E" stroke-width="2" stroke-linecap="round" stroke-linejoin="round"/>
<path d="M11.5281 11H7.97412C6.75812 11 6.15012 11 5.68112 10.725C5.48339 10.6086 5.30715 10.4591 5.16012 10.283C4.81012 9.865 4.71012 9.265 4.51112 8.066C4.30812 6.851 4.20712 6.243 4.44812 5.793C4.54838 5.6052 4.68746 5.44089 4.85612 5.311C5.26012 5 5.87612 5 7.10812 5H13.7641C15.2141 5 15.9391 5 16.2331 5.474C16.5261 5.949 16.2011 6.597 15.5531 7.894L15.1061 8.789C14.5681 9.865 14.2991 10.403 13.8161 10.701C13.3321 11 12.7311 11 11.5281 11Z" stroke="#1E1E1E" stroke-width="2" stroke-linecap="round"/>
<path d="M14 18C14.5523 18 15 17.5523 15 17C15 16.4477 14.5523 16 14 16C13.4477 16 13 16.4477 13 17C13 17.5523 13.4477 18 14 18Z" fill="#1E1E1E"/>
<path d="M6 18C6.55228 18 7 17.5523 7 17C7 16.4477 6.55228 16 6 16C5.44772 16 5 16.4477 5 17C5 17.5523 5.44772 18 6 18Z" fill="#1E1E1E"/>
</svg>
