<svg width="19" height="19" viewBox="0 0 19 19" fill="none" xmlns="http://www.w3.org/2000/svg">
<circle cx="9.5" cy="9.5" r="9.5" fill="#E52E6B"/>
<path d="M12.6329 11.0673L12.6329 12.7682C12.6329 12.8394 12.6046 12.9076 12.5543 12.9579C12.504 13.0083 12.4357 13.0365 12.3645 13.0366L10.6636 13.0366C10.5925 13.0365 10.5242 13.0083 10.4739 12.9579C10.4236 12.9076 10.3953 12.8394 10.3952 12.7682L10.3952 11.0673C10.3953 10.9961 10.4236 10.9279 10.4739 10.8775C10.5242 10.8272 10.5925 10.7989 10.6636 10.7989L12.3645 10.7989C12.4357 10.7989 12.504 10.8272 12.5543 10.8775C12.6046 10.9279 12.6329 10.9961 12.6329 11.0673ZM12.6333 7.03844V8.73936C12.6333 8.77465 12.6263 8.8096 12.6128 8.84221C12.5993 8.87482 12.5796 8.90445 12.5546 8.92941C12.5296 8.95437 12.5 8.97416 12.4674 8.98766C12.4348 9.00115 12.3998 9.00809 12.3645 9.00807L10.6636 9.00807C10.5925 9.00803 10.5242 8.97973 10.4739 8.92941C10.4236 8.87908 10.3953 8.81084 10.3952 8.73967V7.03876C10.3953 6.96759 10.4236 6.89934 10.4739 6.84902C10.5242 6.79869 10.5925 6.7704 10.6636 6.77036L12.3649 6.77004C12.436 6.77009 12.5043 6.79838 12.5546 6.8487C12.6049 6.89903 12.6332 6.96727 12.6333 7.03844ZM8.60443 11.0673L8.60443 12.7682C8.60445 12.8035 8.59751 12.8384 8.58401 12.871C8.57051 12.9037 8.55072 12.9333 8.52577 12.9582C8.50081 12.9832 8.47118 13.003 8.43857 13.0165C8.40596 13.03 8.37101 13.0369 8.33571 13.0369L6.6348 13.0369C6.56363 13.0369 6.49538 13.0086 6.44506 12.9582C6.39473 12.9079 6.36644 12.8397 6.3664 12.7685L6.3664 11.0676C6.36638 11.0323 6.37331 10.9973 6.38681 10.9647C6.40031 10.9321 6.4201 10.9025 6.44506 10.8775C6.47001 10.8526 6.49965 10.8328 6.53226 10.8193C6.56487 10.8058 6.59982 10.7989 6.63511 10.7989L8.33603 10.7989C8.4072 10.7989 8.47544 10.8272 8.52577 10.8775C8.57609 10.9279 8.60438 10.9961 8.60443 11.0673ZM8.60443 7.03876V8.73967C8.60438 8.81084 8.57609 8.87908 8.52577 8.92941C8.47544 8.97973 8.4072 9.00803 8.33603 9.00807L6.63511 9.00807C6.56394 9.00803 6.4957 8.97973 6.44537 8.92941C6.39505 8.87908 6.36676 8.81084 6.36671 8.73967L6.36671 7.03876C6.36676 6.96759 6.39505 6.89934 6.44537 6.84902C6.4957 6.79869 6.56394 6.7704 6.63511 6.77036H8.33603C8.4072 6.7704 8.47544 6.79869 8.52577 6.84902C8.57609 6.89934 8.60438 6.96759 8.60443 7.03876Z" fill="white" stroke="#FCFEFE" stroke-width="1.5"/>
</svg>
