<svg width="16" height="16" viewBox="0 0 16 16" fill="none" xmlns="http://www.w3.org/2000/svg">
<path d="M13.3165 1.50012C13.4726 1.49788 13.6274 1.52695 13.772 1.58562C13.9166 1.6443 14.048 1.73138 14.1583 1.84171C14.2686 1.95204 14.3557 2.08339 14.4144 2.22797C14.4731 2.37255 14.5021 2.52744 14.4999 2.68345L14.4365 7.67545C14.4307 8.15453 14.2376 8.61231 13.8985 8.95079L9.03321 13.8168C8.75121 14.0988 8.34388 14.3488 7.90855 14.4515C7.46588 14.5555 6.92455 14.5155 6.50855 14.0988L1.90121 9.49212C1.48455 9.07545 1.44455 8.53412 1.54855 8.09145C1.65526 7.66637 1.87449 7.27787 2.18321 6.96679L7.04921 2.10145C7.3881 1.76296 7.84561 1.56996 8.32455 1.56345L13.3165 1.50012ZM11.7899 5.22812C11.8782 5.13334 11.9263 5.00797 11.924 4.87844C11.9217 4.74891 11.8692 4.62532 11.7776 4.53371C11.686 4.4421 11.5624 4.38962 11.4329 4.38734C11.3034 4.38505 11.178 4.43313 11.0832 4.52145L10.6112 4.99279C10.5202 5.08713 10.4698 5.21346 10.471 5.34456C10.4722 5.47565 10.5249 5.60104 10.6176 5.6937C10.7104 5.78636 10.8358 5.83888 10.9669 5.83996C11.098 5.84104 11.2243 5.79058 11.3185 5.69945L11.7899 5.22812Z" fill="#FCFEFE"/>
</svg>
