<svg xmlns="http://www.w3.org/2000/svg" width="24" height="24" viewBox="0 0 24 24" fill="none">
    <path d="M11.0293 14.7883C11.0293 15.6251 10.3517 16.3024 9.5147 16.3024C8.67823 16.3024 8 15.6251 8 14.7883C8 13.9517 8.67811 13.2734 9.5147 13.2734C10.3517 13.2734 11.0293 13.9516 11.0293 14.7883ZM11.0293 8.21145C11.0293 9.04792 10.3517 9.72628 9.5147 9.72628C8.67823 9.72628 8 9.04804 8 8.21145C8 7.37535 8.67811 6.69663 9.5147 6.69663C10.3517 6.69663 11.0293 7.37523 11.0293 8.21145ZM12.8097 3C14.7077 5.21166 15.847 8.40396 15.847 11.4997C15.847 14.5957 14.7077 17.7886 12.8097 20L11.5593 19.0736C12.8979 16.7092 13.5688 14.5199 13.5688 11.4998C13.5688 8.48069 12.8979 6.29118 11.5593 3.92605L12.8097 3Z" fill="#052992"/>
</svg>

<svg width="16" height="14" viewBox="0 0 16 14" fill="none" xmlns="http://www.w3.org/2000/svg">
<path d="M14.7251 10.0001H13.7651C14.2806 9.0093 14.5321 7.90245 14.4954 6.78622C14.4586 5.67 14.1349 4.58207 13.5554 3.62734C12.9759 2.67262 12.1602 1.88331 11.187 1.33554C10.2137 0.787763 9.1157 0.5 7.99888 0.5C6.88205 0.5 5.78406 0.787763 4.81079 1.33554C3.83753 1.88331 3.02182 2.67262 2.44233 3.62734C1.86284 4.58207 1.53912 5.67 1.50239 6.78622C1.46566 7.90245 1.71716 9.0093 2.23263 10.0001H1.27513C1.07549 9.99763 0.882785 10.0732 0.738037 10.2107C0.593288 10.3482 0.507928 10.5368 0.500126 10.7363C0.498299 10.836 0.516349 10.935 0.553221 11.0275C0.590093 11.1201 0.645048 11.2044 0.714875 11.2756C0.784701 11.3467 0.867999 11.4031 0.959902 11.4417C1.0518 11.4802 1.15047 11.5001 1.25013 11.5001H5.00013C5.13273 11.5001 5.25991 11.5527 5.35368 11.6465C5.44745 11.7403 5.50013 11.8675 5.50013 12.0001C5.50013 12.1327 5.44745 12.2598 5.35368 12.3536C5.25991 12.4474 5.13273 12.5001 5.00013 12.5001H4.51013C4.39435 12.4998 4.28191 12.5388 4.19111 12.6107C4.10032 12.6825 4.03653 12.783 4.01013 12.8957C3.99455 12.9686 3.9955 13.0442 4.01291 13.1167C4.03032 13.1893 4.06374 13.257 4.11072 13.3149C4.15771 13.3729 4.21707 13.4196 4.28445 13.4516C4.35183 13.4837 4.42552 13.5002 4.50013 13.5001H12.4833C12.6122 13.5017 12.7371 13.4544 12.8327 13.3678C12.9283 13.2812 12.9877 13.1617 12.9989 13.0332C13.0034 12.9648 12.9938 12.8962 12.9708 12.8317C12.9477 12.7671 12.9116 12.708 12.8647 12.658C12.8178 12.608 12.7611 12.5682 12.6982 12.541C12.6353 12.5139 12.5674 12.4999 12.4989 12.5001H9.00013C8.86752 12.5001 8.74034 12.4474 8.64657 12.3536C8.5528 12.2598 8.50013 12.1327 8.50013 12.0001C8.50013 11.8675 8.5528 11.7403 8.64657 11.6465C8.74034 11.5527 8.86752 11.5001 9.00013 11.5001H9.487C9.61052 11.4995 9.72976 11.4548 9.82318 11.374C9.9166 11.2931 9.97803 11.1816 9.99638 11.0594C10.0048 10.9893 9.99819 10.9181 9.97709 10.8507C9.95599 10.7833 9.92083 10.7211 9.87394 10.6682C9.82705 10.6154 9.76949 10.5731 9.70506 10.5441C9.64063 10.5151 9.57078 10.5001 9.50013 10.5001H8.50013C7.567 10.5001 6.58825 10.1388 5.81263 9.50943C4.96575 8.82193 4.50013 7.93006 4.50013 7.00006C4.50002 6.81168 4.51486 6.62359 4.5445 6.43756C4.56332 6.30776 4.63113 6.19009 4.73399 6.10873C4.83686 6.02736 4.96698 5.98848 5.09763 6.00006C5.16515 6.00762 5.23042 6.02887 5.28945 6.06249C5.34849 6.09612 5.40005 6.14143 5.44099 6.19565C5.48193 6.24987 5.5114 6.31186 5.52758 6.37785C5.54377 6.44383 5.54633 6.51242 5.53513 6.57943C5.512 6.71845 5.50029 6.85913 5.50013 7.00006C5.50013 8.38506 7.14138 9.50006 8.50013 9.50006H9.46513C10.3089 9.50006 11.0189 10.1907 10.9995 11.0344C10.9982 11.0936 10.9934 11.1527 10.9851 11.2113C10.9795 11.2472 10.9818 11.284 10.9918 11.3189C11.0018 11.3539 11.0193 11.3862 11.0431 11.4137C11.0669 11.4412 11.0964 11.4632 11.1296 11.4781C11.1627 11.493 11.1988 11.5005 11.2351 11.5001H14.7501C14.8498 11.5001 14.9484 11.4802 15.0403 11.4417C15.1323 11.4031 15.2156 11.3467 15.2854 11.2756C15.3552 11.2044 15.4102 11.1201 15.447 11.0275C15.4839 10.935 15.502 10.836 15.5001 10.7363C15.4923 10.5368 15.407 10.3482 15.2622 10.2107C15.1175 10.0732 14.9248 9.99763 14.7251 10.0001ZM7.99388 4.84756C7.97565 4.98638 7.91893 5.11732 7.83014 5.22557C7.74135 5.33382 7.62403 5.41506 7.49146 5.46008C7.35889 5.50511 7.21637 5.51213 7.08002 5.48035C6.94366 5.44857 6.81893 5.37926 6.71993 5.28026C6.62093 5.18126 6.55162 5.05652 6.51983 4.92017C6.48805 4.78382 6.49508 4.64129 6.5401 4.50872C6.58513 4.37615 6.66637 4.25884 6.77462 4.17004C6.88287 4.08125 7.01381 4.02454 7.15263 4.00631C7.26664 3.99134 7.38258 4.00279 7.49146 4.03977C7.60035 4.07676 7.69927 4.13828 7.78059 4.2196C7.8619 4.30091 7.92343 4.39984 7.96041 4.50872C7.9974 4.61761 8.00885 4.73354 7.99388 4.84756ZM10.9939 7.84756C10.9756 7.98638 10.9189 8.11732 10.8301 8.22557C10.7414 8.33382 10.624 8.41506 10.4915 8.46008C10.3589 8.50511 10.2164 8.51213 10.08 8.48035C9.94366 8.44857 9.81893 8.37926 9.71993 8.28026C9.62093 8.18126 9.55161 8.05652 9.51983 7.92017C9.48805 7.78382 9.49508 7.64129 9.5401 7.50872C9.58513 7.37615 9.66637 7.25883 9.77462 7.17004C9.88287 7.08125 10.0138 7.02454 10.1526 7.00631C10.2666 6.99134 10.3826 7.00279 10.4915 7.03977C10.6003 7.07676 10.6993 7.13828 10.7806 7.2196C10.8619 7.30091 10.9234 7.39984 10.9604 7.50872C10.9974 7.61761 11.0088 7.73354 10.9939 7.84756Z" fill="#1E1E1E"/>
</svg>
