<svg xmlns="http://www.w3.org/2000/svg" width="24" height="24" viewBox="0 0 24 24" fill="none">
    <path fill-rule="evenodd" clip-rule="evenodd" d="M19.5 17H5.5V7H19.5V17ZM4 17.5V6.5C4 5.94772 4.44772 5.5 5 5.5H20C20.5523 5.5 21 5.94772 21 6.5V17.5C21 18.0523 20.5523 18.5 20 18.5H5C4.44772 18.5 4 18.0523 4 17.5ZM8.03464 9C7.66903 9 7.49504 9.45004 7.76557 9.69598L12.2309 13.7554C12.3835 13.8941 12.6165 13.8941 12.7691 13.7554L17.2344 9.69598C17.505 9.45004 17.331 9 16.9654 9H8.03464Z" fill="#1A1A1A"/>
</svg>

<svg width="20" height="16" viewBox="0 0 20 16" fill="none" xmlns="http://www.w3.org/2000/svg">
<path d="M2 16C1.45 16 0.979333 15.8043 0.588 15.413C0.196667 15.0217 0.000666667 14.5507 0 14V2C0 1.45 0.196 0.979333 0.588 0.588C0.98 0.196666 1.45067 0.000666667 2 0H18C18.55 0 19.021 0.196 19.413 0.588C19.805 0.98 20.0007 1.45067 20 2V14C20 14.55 19.8043 15.021 19.413 15.413C19.0217 15.805 18.5507 16.0007 18 16H2ZM18 4L10.525 8.675C10.4417 8.725 10.3543 8.76267 10.263 8.788C10.1717 8.81333 10.084 8.82567 10 8.825C9.916 8.82433 9.82867 8.812 9.738 8.788C9.64733 8.764 9.55967 8.72633 9.475 8.675L2 4V14H18V4ZM10 7L18 2H2L10 7ZM2 4.25V2.775V2.8V2.788V4.25Z" fill="#1E1E1E"/>
</svg>

