<svg width="21" height="22" viewBox="0 0 21 22" fill="none" xmlns="http://www.w3.org/2000/svg">
<path d="M5.85705 0.44546C7.00005 1.27846 7.89005 2.41546 8.65004 3.50346L9.09205 4.14746L9.50905 4.76246C9.71763 5.06719 9.80681 5.43801 9.7596 5.80426C9.71239 6.17051 9.53209 6.50659 9.25305 6.74846L7.30205 8.19746C7.20779 8.26552 7.14144 8.36549 7.11532 8.47878C7.08921 8.59208 7.1051 8.711 7.16005 8.81346C7.60205 9.61646 8.38805 10.8125 9.28805 11.7125C10.188 12.6125 11.441 13.4505 12.3 13.9425C12.4077 14.0029 12.5345 14.0198 12.6543 13.9897C12.7741 13.9596 12.8778 13.8847 12.944 13.7805L14.214 11.8475C14.4475 11.5373 14.792 11.3295 15.1752 11.2676C15.5585 11.2058 15.9508 11.2946 16.27 11.5155L16.933 11.9745C18.172 12.8345 19.503 13.8115 20.521 15.1145C20.6825 15.3223 20.7852 15.5696 20.8184 15.8306C20.8517 16.0917 20.8143 16.3568 20.71 16.5985C19.873 18.5515 17.755 20.2145 15.552 20.1335L15.252 20.1165L15.019 20.0965L14.761 20.0665L14.48 20.0285L14.175 19.9785L14.015 19.9485L13.679 19.8765L13.503 19.8365L13.137 19.7425L12.752 19.6325L12.35 19.5025C10.504 18.8765 8.16105 17.6465 5.75705 15.2425C3.35305 12.8385 2.12405 10.4965 1.49805 8.65046L1.36805 8.24846L1.25805 7.86346L1.16405 7.49746L1.08605 7.15146C1.06354 7.04309 1.04254 6.93441 1.02305 6.82546L0.973046 6.52046L0.933045 6.23946L0.904046 5.98146L0.884045 5.74846L0.868046 5.44846C0.787046 3.25246 2.46805 1.11946 4.41205 0.28646C4.64602 0.185427 4.90225 0.14696 5.15558 0.174835C5.40891 0.20271 5.65063 0.295969 5.85705 0.44546ZM13.992 4.04046L14.108 4.05346C14.836 4.18186 15.5045 4.5374 16.0179 5.06914C16.5314 5.60087 16.8632 6.2815 16.966 7.01346C17.0027 7.26664 16.9409 7.52424 16.7934 7.73326C16.646 7.94229 16.424 8.08684 16.1732 8.13718C15.9223 8.18753 15.6618 8.13983 15.445 8.00391C15.2283 7.86798 15.0719 7.65417 15.008 7.40646L14.985 7.29146C14.9448 7.00456 14.8224 6.73545 14.6325 6.51664C14.4426 6.29784 14.1934 6.1387 13.915 6.05846L13.76 6.02346C13.5089 5.97895 13.2843 5.8402 13.1321 5.63556C12.98 5.43093 12.9117 5.17589 12.9413 4.9226C12.971 4.66932 13.0963 4.43692 13.2916 4.27294C13.4869 4.10897 13.7375 4.0258 13.992 4.04046ZM14 1.00046C15.5913 1.00046 17.1175 1.6326 18.2427 2.75782C19.3679 3.88304 20 5.40916 20 7.00046C19.9998 7.25534 19.9022 7.50049 19.7272 7.68583C19.5522 7.87116 19.3131 7.9827 19.0587 7.99763C18.8042 8.01257 18.5537 7.92979 18.3582 7.7662C18.1628 7.6026 18.0371 7.37055 18.007 7.11746L18 7.00046C17.9999 5.98502 17.6136 5.00763 16.9195 4.26649C16.2253 3.52536 15.2753 3.07597 14.262 3.00946L14 3.00046C13.7348 3.00046 13.4805 2.8951 13.2929 2.70757C13.1054 2.52003 13 2.26568 13 2.00046C13 1.73524 13.1054 1.48089 13.2929 1.29335C13.4805 1.10582 13.7348 1.00046 14 1.00046Z" fill="#1E1E1E"/>
</svg>
