<svg xmlns="http://www.w3.org/2000/svg" viewBox="0 0 24 24" id="sad">
  <circle cx="12" cy="12" r="9.75" fill="#ffd15b"></circle>
  <path fill="#494249" d="m12,21.75c-5.376,0-9.75-4.374-9.75-9.75S6.624,2.25,12,2.25s9.75,4.374,9.75,9.75-4.374,9.75-9.75,9.75Zm0-18C7.451,3.75,3.75,7.451,3.75,12s3.701,8.25,8.25,8.25,8.25-3.701,8.25-8.25S16.549,3.75,12,3.75Zm-3.75,6.25v-1c0-.414.336-.75.75-.75s.75.336.75.75v1c0,.414-.336.75-.75.75s-.75-.336-.75-.75Zm6.75.75c.414,0,.75-.336.75-.75v-1c0-.414-.336-.75-.75-.75s-.75.336-.75.75v1c0,.414.336.75.75.75Zm1.671,3.915c-.049-.099-1.247-2.415-4.671-2.415s-4.622,2.316-4.671,2.415c-.184.368-.036.811.33.999.365.189.816.043,1.008-.32.035-.065.87-1.593,3.333-1.593s3.298,1.527,3.329,1.585c.131.263.396.415.671.415.113,0,.227-.025.335-.079.371-.186.521-.636.335-1.006Z"></path>
</svg>
