<svg xmlns="http://www.w3.org/2000/svg" viewBox="0 0 24 24" width="24" height="24" fill="none" data-testid="icon"
     class="">
  <path
    d="M12 21C16.9706 21 21 16.9706 21 12C21 7.02944 16.9706 3 12 3C7.02944 3 3 7.02944 3 12C3 16.9706 7.02944 21 12 21Z"
    fill="url(#paint0_linear_12955_4552)"></path>
  <path fill-rule="evenodd" clip-rule="evenodd"
        d="M7.07426 11.905C9.69794 10.7619 11.4475 10.0083 12.3229 9.64417C14.8223 8.60458 15.3416 8.424 15.6801 8.41803C15.7546 8.41672 15.921 8.43517 16.0289 8.52267C16.1199 8.59655 16.145 8.69635 16.1569 8.7664C16.1689 8.83645 16.1839 8.99602 16.172 9.1207C16.0366 10.5438 15.4505 13.9973 15.1523 15.5912C15.0262 16.2657 14.7778 16.4918 14.5373 16.514C14.0146 16.562 13.6178 16.1686 13.1115 15.8367C12.3194 15.3175 11.8719 14.9943 11.103 14.4876C10.2145 13.902 10.7905 13.5802 11.2969 13.0542C11.4294 12.9166 13.7322 10.822 13.7768 10.632C13.7824 10.6082 13.7875 10.5196 13.7349 10.4729C13.6823 10.4261 13.6046 10.4421 13.5486 10.4548C13.4691 10.4728 12.2037 11.3092 9.75232 12.964C9.39313 13.2106 9.06779 13.3308 8.7763 13.3245C8.45496 13.3176 7.83681 13.1428 7.37729 12.9934C6.81366 12.8102 6.3657 12.7134 6.40471 12.4022C6.42503 12.2401 6.64821 12.0744 7.07426 11.905Z"
        fill="white"></path>
  <defs>
    <linearGradient id="paint0_linear_12955_4552" x1="903" y1="3" x2="903" y2="1789.65" gradientUnits="userSpaceOnUse">
      <stop stop-color="#2AABEE"></stop>
      <stop offset="1" stop-color="#229ED9"></stop>
    </linearGradient>
    <linearGradient
      id="telegram-gradient"
      x1="50%"
      y1="0%"
      x2="50%"
      y2="100%"
      gradientUnits="objectBoundingBox">
      <stop offset="0%" stop-color="#2aabee"/>
      <stop offset="100%" stop-color="#229ed9"/>
    </linearGradient>
  </defs>
</svg>