<svg xmlns="http://www.w3.org/2000/svg" viewBox="0 0 24 24" width="24" height="24" fill="none" data-testid="icon" class=""><path d="M12 21C16.9706 21 21 16.9706 21 12C21 7.02944 16.9706 3 12 3C7.02944 3 3 7.02944 3 12C3 16.9706 7.02944 21 12 21Z" fill="#1A1A1A"></path><path d="M11.3187 10.8627V10.4298C11.155 10.4085 10.9899 10.3975 10.8246 10.3967C8.80266 10.3967 7.15771 11.9068 7.15771 13.7626C7.15771 14.9011 7.77758 15.9088 8.72317 16.5182C8.09002 15.8967 7.73802 15.0775 7.73853 14.2266C7.73853 12.3972 9.33667 10.9054 11.3187 10.8627Z" fill="#00F2EA"></path><path d="M11.4159 15.6436C12.2706 15.6436 12.9678 14.9809 12.9995 14.155L13.0024 6.78245H14.3842C14.3547 6.62852 14.3398 6.47227 14.3396 6.31567H12.4524L12.4493 13.6885C12.4178 14.5141 11.7203 15.1766 10.8659 15.1766C10.6094 15.1767 10.3568 15.1157 10.1299 14.999C10.4271 15.4032 10.9058 15.6431 11.4159 15.6436ZM16.9655 9.2849V8.87516C16.4577 8.87562 15.9608 8.73162 15.5357 8.46081C15.9084 8.87907 16.4099 9.16823 16.9655 9.2849Z" fill="#00F2EA"></path><path d="M15.4798 8.56566C15.0641 8.10412 14.8352 7.51189 14.8355 6.89893H14.331C14.463 7.58357 14.8781 8.18589 15.4798 8.56566ZM10.821 12.1649C9.94732 12.1659 9.23929 12.8531 9.23828 13.701C9.23885 14.272 9.56546 14.7957 10.0865 15.0609C9.89182 14.8003 9.787 14.4868 9.78698 14.165C9.78785 13.3169 10.4959 12.6296 11.3697 12.6286C11.5328 12.6286 11.6891 12.6548 11.8368 12.6997V10.834C11.682 10.8128 11.526 10.8017 11.3697 10.801C11.3422 10.801 11.3153 10.8025 11.2881 10.8031V12.236C11.137 12.1894 10.9795 12.1654 10.821 12.1649Z" fill="#FF004F"></path><path d="M16.7143 9.52247V10.9459C15.738 10.9459 14.8337 10.6421 14.095 10.1265V13.8484C14.095 15.7072 12.5407 17.2194 10.6299 17.2194C9.89154 17.2194 9.20681 16.9928 8.64404 16.6083C9.29812 17.2945 10.2166 17.6844 11.1786 17.6841C13.0893 17.6841 14.6439 16.1719 14.6439 14.3133V10.5914C15.407 11.1252 16.3233 11.4119 17.2632 11.4108V9.579C17.0748 9.579 16.8915 9.55939 16.7143 9.52247Z" fill="#FF004F"></path><path d="M14.2843 13.7255V9.99833C15.0654 10.5329 16.0034 10.82 16.9656 10.8189V9.39349C16.3983 9.27706 15.886 8.98869 15.5056 8.57166C14.8898 8.19052 14.4649 7.58604 14.3298 6.89893H12.9189L12.9159 14.249C12.8835 15.0721 12.1716 15.7328 11.2989 15.7328C10.778 15.7323 10.2893 15.4931 9.98576 15.0902C9.4524 14.8241 9.118 14.2986 9.11737 13.7255C9.1184 12.8745 9.84308 12.1848 10.7373 12.1838C10.904 12.1838 11.0639 12.2099 11.2153 12.2552V10.8171C9.29796 10.8599 7.75195 12.3562 7.75195 14.1911C7.75195 15.0785 8.11421 15.8863 8.70447 16.4896C9.29953 16.8883 10.0096 17.1019 10.7373 17.1013C12.6933 17.1013 14.2843 15.5869 14.2843 13.7255Z" fill="white"></path></svg>