<svg xmlns="http://www.w3.org/2000/svg" viewBox="0 0 24 24" width="24" height="24" fill="none" data-testid="icon" class=""><path d="M11.6306 21H12.3801C16.4488 21 18.4836 21 19.7472 19.7364C21.0108 18.4728 21 16.4388 21 12.3801V11.6198C21 7.56192 21 5.52721 19.7472 4.2636C18.4944 3 16.4488 3 12.3801 3H11.6306C7.5612 3 5.5272 3 4.26359 4.2636C3 5.52721 3 7.56049 3 11.6198V12.3801C3 16.4388 3 18.4728 4.26359 19.7364C5.5272 21 7.5612 21 11.6306 21Z" fill="#0077FF"></path><path d="M12.6595 15.9781C8.60087 15.9781 6.13776 13.1622 6.04199 8.48291H8.0976C8.16168 11.9202 9.72551 13.3789 10.9243 13.6763V8.48291H12.895V11.4486C14.0513 11.3204 15.2609 9.97115 15.6684 8.48291H17.6059C17.2956 10.3139 15.9787 11.6632 15.0471 12.2197C15.9787 12.6697 17.4778 13.8476 18.0559 15.9781H15.9254C15.4754 14.5539 14.3724 13.4509 12.895 13.3011V15.9781H12.6595Z" fill="#F7F8FA"></path></svg>