<svg xmlns="http://www.w3.org/2000/svg" viewBox="0 0 24 24" width="24" height="24" fill="none" data-testid="icon" class=""><path d="M21.5818 7.18637C21.3513 6.32532 20.6747 5.64867 19.8136 5.41818C18.2545 5 12 5 12 5C12 5 5.74547 5 4.18637 5.41818C3.32532 5.64867 2.64867 6.32532 2.41818 7.18637C2 8.74547 2 12.0003 2 12.0003C2 12.0003 2 15.2552 2.41818 16.8143C2.64867 17.6753 3.32532 18.352 4.18637 18.5825C5.74547 19.0007 12 19.0007 12 19.0007C12 19.0007 18.2545 19.0007 19.8136 18.5825C20.6747 18.352 21.3513 17.6753 21.5818 16.8143C22 15.2552 22 12.0003 22 12.0003C22 12.0003 21.9984 8.74547 21.5818 7.18637Z" fill="#FF0000"></path><path d="M9.99805 14.9998L15.194 12.0002L9.99805 9.00049V14.9998Z" fill="white"></path></svg>