<svg xmlns="http://www.w3.org/2000/svg" viewBox="0 0 56 56" width="56px" height="56px" fill="none" data-testid="icon" class="">

    <circle cx="28" cy="28" r="28" fill="#dcdde0"/>
    <path d="M20.2211 19.0601V20.2227H15.9434C14.0104 20.2227 12.4434 21.7896 12.4434 23.7227V27.2226H19.4434V26.056C19.4434 25.4116 19.9657 24.8893 20.61 24.8893C21.2544 24.8893 21.7767 25.4116 21.7767 26.056V27.2226H34.2211V26.056C34.2211 25.4116 34.7435 24.8893 35.3878 24.8893C36.0321 24.8893 36.5545 25.4116 36.5545 26.056V27.2226H43.5545V23.7227C43.5545 21.7897 41.9874 20.2227 40.0545 20.2227H35.7767V19.0601C35.7767 17.1271 34.2096 15.5601 32.2767 15.5601H23.7211C21.7881 15.5601 20.2211 17.1271 20.2211 19.0601ZM23.7211 17.8934H32.2767C32.921 17.8934 33.4434 18.4157 33.4434 19.0601V20.2227H22.5545V19.0601C22.5545 18.4157 23.0768 17.8934 23.7211 17.8934Z" fill="#fff"></path><path d="M43.5545 29.556H36.5545V31.5004C36.5545 32.1447 36.0321 32.6671 35.3878 32.6671C34.7435 32.6671 34.2211 32.1447 34.2211 31.5004V29.556H21.7767V31.5004C21.7767 32.1447 21.2544 32.6671 20.61 32.6671C19.9657 32.6671 19.4434 32.1447 19.4434 31.5004V29.556H12.4434V36.9399C12.4434 38.8728 14.0104 40.4399 15.9434 40.4399H40.0545C41.9874 40.4399 43.5545 38.8728 43.5545 36.9399V29.556Z" fill="#fff"></path><defs><filter id="filter0_dd_15355_1669" x="8.44336" y="13.5601" width="39.1113" height="32.8799" filterUnits="userSpaceOnUse" color-interpolation-filters="sRGB"><feFlood flood-opacity="0" result="BackgroundImageFix"></feFlood><feColorMatrix in="SourceAlpha" type="matrix" values="0 0 0 0 0 0 0 0 0 0 0 0 0 0 0 0 0 0 127 0" result="hardAlpha"></feColorMatrix><feOffset dy="2"></feOffset><feGaussianBlur stdDeviation="2"></feGaussianBlur><feColorMatrix type="matrix" values="0 0 0 0 0.16 0 0 0 0 0.173333 0 0 0 0 0.2 0 0 0 0.08 0"></feColorMatrix><feBlend mode="multiply" in2="BackgroundImageFix" result="effect1_dropShadow_15355_1669"></feBlend><feColorMatrix in="SourceAlpha" type="matrix" values="0 0 0 0 0 0 0 0 0 0 0 0 0 0 0 0 0 0 127 0" result="hardAlpha"></feColorMatrix><feOffset dy="1"></feOffset><feGaussianBlur stdDeviation="0.5"></feGaussianBlur><feColorMatrix type="matrix" values="0 0 0 0 0.160784 0 0 0 0 0.172549 0 0 0 0 0.2 0 0 0 0.04 0"></feColorMatrix><feBlend mode="normal" in2="effect1_dropShadow_15355_1669" result="effect2_dropShadow_15355_1669"></feBlend><feBlend mode="normal" in="SourceGraphic" in2="effect2_dropShadow_15355_1669" result="shape"></feBlend></filter></defs></svg>