<svg xmlns="http://www.w3.org/2000/svg" viewBox="0 0 56 56" width="56px" height="56px" fill="none" data-testid="icon" class="">
<circle cx="28" cy="28" r="28" fill="#dcdde0"/>
<path d="M20.598 44.0885C17.5011 45.8013 14.5781 47.0824 12 49.3661C16.3196 53.0589 21.9525 54.9644 28 54.9644C34.0475 54.9644 39.6925 53.0085 44 49.3661C41.2452 47.0079 37.8478 45.8799 34.6439 44.2187C33.6188 43.699 33.0824 42.3852 33.0824 41.2233V38.1697C33.3054 37.9123 33.4492 37.731 33.7219 37.3405C34.8032 35.792 36.2802 33.8496 36.8471 32.0626C37.6 32.0626 37.6 30.5358 37.6 29.7724V25.9554C37.6 25.2144 37.6 24.4286 36.8471 24.4286C36.8471 24.4286 36.8471 21.3751 36.8471 19.8483C36.8471 18.3215 34.5882 12.2144 27.8118 12.2144C21.0353 12.2144 18.7765 18.3215 18.7765 19.8483C18.7765 20.6117 18.7765 24.4286 18.7765 24.4286C18.0235 24.4286 18.0231 25.192 18.0231 25.9554L18.0235 29.7724C18.0235 30.6597 18.0231 32.0626 18.7765 32.0626C19.6067 35.7268 22.5412 38.1697 22.5412 38.1697V41.2233C22.5402 42.3443 21.5697 43.5508 20.598 44.0885Z" fill="#fff"></path></svg>